<svg version="1.1" xmlns="http://www.w3.org/2000/svg" xmlns:xlink="http://www.w3.org/1999/xlink" viewBox="0 0 1096 1096">
 <title>Group</title>
 <g fill="none" fill-rule="evenodd" id="Solarium-App-&amp;-Framework-Icons" stroke="none" stroke-width="1">
  <g fill="#00CC00" id="App-Blueprint-Grid-(1088)" transform="translate(3, 3)">
   <g id="Group" transform="translate(-1.4142, -1.4142)">
    <path d="M294.416 1.41421L294.415 284.414L540.415 284.414L540.416 1.41421L550.416 1.41421L550.415 284.414L796.415 284.414L796.416 1.41421L806.416 1.41421L806.415 284.414L1089.42 284.414L1089.42 294.414L806.415 294.414L806.415 540.414L1089.42 540.414L1089.42 550.414L806.415 550.414L806.415 796.414L1089.42 796.414L1089.42 806.414L806.415 806.414L806.416 1089.41L796.416 1089.41L796.415 806.414L550.415 806.414L550.416 1089.41L540.416 1089.41L540.415 806.414L294.415 806.414L294.416 1089.41L284.416 1089.41L284.415 806.414L1.41557 806.414L1.41557 796.414L284.415 796.414L284.415 550.414L1.41557 550.414L1.41557 540.414L284.415 540.414L284.415 294.414L1.41557 294.414L1.41557 284.414L284.415 284.414L284.416 1.41421L294.416 1.41421ZM540.415 550.414L294.415 550.414L294.415 796.414L540.415 796.414L540.415 550.414ZM796.415 550.414L550.415 550.414L550.415 796.414L796.415 796.414L796.415 550.414ZM540.415 294.414L294.415 294.414L294.415 540.414L540.415 540.414L540.415 294.414ZM796.415 294.414L550.415 294.414L550.415 540.414L796.415 540.414L796.415 294.414Z" fill-rule="nonzero" id="Original-Copy"/>
   </g>
  </g>
 </g>
</svg>
